<svg id="visual" viewBox="0 0 1920 1080" width="1920" height="1080" xmlns="http://www.w3.org/2000/svg" xmlns:xlink="http://www.w3.org/1999/xlink" version="1.1"><rect x="0" y="0" width="1920" height="1080" fill="#074173"></rect><path d="M0 634L45.7 637.8C91.3 641.7 182.7 649.3 274.2 652.7C365.7 656 457.3 655 548.8 652C640.3 649 731.7 644 823 659.5C914.3 675 1005.7 711 1097 735.7C1188.3 760.3 1279.7 773.7 1371.2 759.3C1462.7 745 1554.3 703 1645.8 676.8C1737.3 650.7 1828.7 640.3 1874.3 635.2L1920 630L1920 1081L1874.3 1081C1828.7 1081 1737.3 1081 1645.8 1081C1554.3 1081 1462.7 1081 1371.2 1081C1279.7 1081 1188.3 1081 1097 1081C1005.7 1081 914.3 1081 823 1081C731.7 1081 640.3 1081 548.8 1081C457.3 1081 365.7 1081 274.2 1081C182.7 1081 91.3 1081 45.7 1081L0 1081Z" fill="#1679ab"></path><path d="M0 854L45.7 830.5C91.3 807 182.7 760 274.2 761.7C365.7 763.3 457.3 813.7 548.8 816.2C640.3 818.7 731.7 773.3 823 771.5C914.3 769.7 1005.7 811.3 1097 810.3C1188.3 809.3 1279.7 765.7 1371.2 741.8C1462.7 718 1554.3 714 1645.8 725.2C1737.3 736.3 1828.7 762.7 1874.3 775.8L1920 789L1920 1081L1874.3 1081C1828.7 1081 1737.3 1081 1645.8 1081C1554.3 1081 1462.7 1081 1371.2 1081C1279.7 1081 1188.3 1081 1097 1081C1005.7 1081 914.3 1081 823 1081C731.7 1081 640.3 1081 548.8 1081C457.3 1081 365.7 1081 274.2 1081C182.7 1081 91.3 1081 45.7 1081L0 1081Z" fill="#0096bf"></path><path d="M0 910L45.7 911C91.3 912 182.7 914 274.2 904C365.7 894 457.3 872 548.8 862.3C640.3 852.7 731.7 855.3 823 863.5C914.3 871.7 1005.7 885.3 1097 876C1188.3 866.7 1279.7 834.3 1371.2 834C1462.7 833.7 1554.3 865.3 1645.8 864.3C1737.3 863.3 1828.7 829.7 1874.3 812.8L1920 796L1920 1081L1874.3 1081C1828.7 1081 1737.3 1081 1645.8 1081C1554.3 1081 1462.7 1081 1371.2 1081C1279.7 1081 1188.3 1081 1097 1081C1005.7 1081 914.3 1081 823 1081C731.7 1081 640.3 1081 548.8 1081C457.3 1081 365.7 1081 274.2 1081C182.7 1081 91.3 1081 45.7 1081L0 1081Z" fill="#00b3cd"></path><path d="M0 904L45.7 912.8C91.3 921.7 182.7 939.3 274.2 948.5C365.7 957.7 457.3 958.3 548.8 955.3C640.3 952.3 731.7 945.7 823 939C914.3 932.3 1005.7 925.7 1097 917C1188.3 908.3 1279.7 897.7 1371.2 890.3C1462.7 883 1554.3 879 1645.8 886C1737.3 893 1828.7 911 1874.3 920L1920 929L1920 1081L1874.3 1081C1828.7 1081 1737.3 1081 1645.8 1081C1554.3 1081 1462.7 1081 1371.2 1081C1279.7 1081 1188.3 1081 1097 1081C1005.7 1081 914.3 1081 823 1081C731.7 1081 640.3 1081 548.8 1081C457.3 1081 365.7 1081 274.2 1081C182.7 1081 91.3 1081 45.7 1081L0 1081Z" fill="#2bcfd5"></path><path d="M0 998L45.7 992.2C91.3 986.3 182.7 974.7 274.2 979.8C365.7 985 457.3 1007 548.8 1014C640.3 1021 731.7 1013 823 1013.3C914.3 1013.7 1005.7 1022.3 1097 1026.5C1188.3 1030.7 1279.7 1030.3 1371.2 1030.7C1462.7 1031 1554.3 1032 1645.8 1023.2C1737.3 1014.3 1828.7 995.7 1874.3 986.3L1920 977L1920 1081L1874.3 1081C1828.7 1081 1737.3 1081 1645.8 1081C1554.3 1081 1462.7 1081 1371.2 1081C1279.7 1081 1188.3 1081 1097 1081C1005.7 1081 914.3 1081 823 1081C731.7 1081 640.3 1081 548.8 1081C457.3 1081 365.7 1081 274.2 1081C182.7 1081 91.3 1081 45.7 1081L0 1081Z" fill="#5debd7"></path></svg>